<?xml version="1.0" standalone="no"?>
<!DOCTYPE svg PUBLIC "-//W3C//DTD SVG 20010904//EN"
 "http://www.w3.org/TR/2001/REC-SVG-20010904/DTD/svg10.dtd">
<svg version="1.0" xmlns="http://www.w3.org/2000/svg"
 width="16.000000pt" height="16.000000pt" viewBox="0 0 16.000000 16.000000"
 preserveAspectRatio="xMidYMid meet">

<g transform="translate(0.000000,16.000000) scale(0.100000,-0.100000)"
fill="#000000" stroke="none">
<path d="M67 144 c-4 -4 -7 -20 -7 -36 0 -24 -4 -28 -27 -28 l-28 0 38 -37 37
-38 37 38 38 37 -27 0 c-23 0 -27 5 -30 32 -3 31 -17 45 -31 32z m23 -34 c0
-22 6 -33 20 -38 20 -8 20 -8 -5 -32 l-25 -23 -25 23 c-25 24 -25 24 -5 32 14
5 20 16 20 38 0 16 5 30 10 30 6 0 10 -14 10 -30z"/>
</g>
</svg>
