<?xml version="1.0" standalone="no"?>
<!DOCTYPE svg PUBLIC "-//W3C//DTD SVG 20010904//EN"
 "http://www.w3.org/TR/2001/REC-SVG-20010904/DTD/svg10.dtd">
<svg version="1.0" xmlns="http://www.w3.org/2000/svg"
 width="16.000000pt" height="16.000000pt" viewBox="0 0 16.000000 16.000000"
 preserveAspectRatio="xMidYMid meet">

<g transform="translate(0.000000,16.000000) scale(0.100000,-0.100000)"
fill="#000000" stroke="none">
<path d="M40 115 l-34 -35 26 0 c23 0 27 -5 30 -32 2 -21 8 -33 18 -33 10 0
16 12 18 33 3 27 7 32 30 32 l26 0 -34 35 c-19 19 -37 35 -40 35 -3 0 -21 -16
-40 -35z m69 1 c22 -23 22 -23 2 -29 -16 -4 -21 -13 -21 -36 0 -17 -4 -31 -10
-31 -5 0 -10 14 -10 31 0 23 -5 32 -21 36 -20 6 -20 6 2 29 12 13 25 24 29 24
4 0 17 -11 29 -24z"/>
</g>
</svg>
